<svg width="31" height="24" viewBox="0 0 31 24" fill="none" xmlns="http://www.w3.org/2000/svg">
<path d="M25.7706 1.96863C23.8416 1.05092 21.753 0.384845 19.5775 0C19.5392 0.000556107 19.5027 0.0165169 19.4759 0.0444054C19.2149 0.532862 18.9103 1.16934 18.7072 1.65779C16.3997 1.30277 14.053 1.30277 11.7454 1.65779C11.5424 1.15453 11.2378 0.532862 10.9622 0.0444054C10.9477 0.014802 10.9042 0 10.8607 0C8.68511 0.384845 6.61107 1.05092 4.66756 1.96863C4.65305 1.96863 4.63855 1.98343 4.62405 1.99823C0.679016 8.02253 -0.408769 13.884 0.127871 19.6863C0.127871 19.7159 0.142375 19.7455 0.171383 19.7603C2.78206 21.7141 5.29122 22.8983 7.77137 23.6827C7.81488 23.6975 7.85839 23.6827 7.8729 23.6531C8.45305 22.839 8.97518 21.9805 9.4248 21.0776C9.45381 21.0184 9.4248 20.9592 9.36679 20.9444C8.54007 20.6188 7.75687 20.2339 6.98816 19.7899C6.93015 19.7603 6.93015 19.6715 6.97366 19.6271C7.1332 19.5087 7.29274 19.3754 7.45229 19.257C7.48129 19.2274 7.5248 19.2274 7.55381 19.2422C12.5431 21.5661 17.924 21.5661 22.8553 19.2422C22.8843 19.2274 22.9278 19.2274 22.9568 19.257C23.1164 19.3902 23.2759 19.5087 23.4355 19.6419C23.4935 19.6863 23.4935 19.7751 23.421 19.8047C22.6668 20.2635 21.8691 20.6336 21.0423 20.9592C20.9843 20.974 20.9698 21.048 20.9843 21.0924C21.4484 21.9953 21.9706 22.8538 22.5362 23.6679C22.5797 23.6827 22.6232 23.6975 22.6668 23.6827C25.1614 22.8983 27.6706 21.7141 30.2812 19.7603C30.3103 19.7455 30.3248 19.7159 30.3248 19.6863C30.9629 12.9811 29.266 7.16403 25.8286 1.99823C25.8141 1.98343 25.7996 1.96863 25.7706 1.96863ZM10.179 16.1487C8.68511 16.1487 7.43778 14.7425 7.43778 13.0107C7.43778 11.2789 8.6561 9.87274 10.179 9.87274C11.7164 9.87274 12.9347 11.2937 12.9202 13.0107C12.9202 14.7425 11.7019 16.1487 10.179 16.1487ZM20.2881 16.1487C18.7942 16.1487 17.5469 14.7425 17.5469 13.0107C17.5469 11.2789 18.7652 9.87274 20.2881 9.87274C21.8255 9.87274 23.0439 11.2937 23.0294 13.0107C23.0294 14.7425 21.8255 16.1487 20.2881 16.1487Z" fill="currentColor"/>
</svg>
