<svg width="20" height="19" viewBox="0 0 20 19" fill="none" xmlns="http://www.w3.org/2000/svg">
<path d="M4.98381 1.14299C4.98381 0.496953 5.48219 0 6.13009 0H13.8051C14.453 0 14.9514 0.496953 14.9514 1.14299V3.92593C14.9514 4.57196 15.4498 5.06892 16.0977 5.06892H18.7889C19.4368 5.06892 19.9352 5.56587 19.9352 6.21191V8.99484C19.9352 9.64088 19.4368 10.1378 18.7889 10.1378H16.0977C15.4498 10.1378 14.9514 9.64088 14.9514 8.99484V6.21191C14.9514 5.56587 14.453 5.06892 13.8051 5.06892H6.13009C5.48219 5.06892 4.98381 5.56587 4.98381 6.21191L4.9838 12.7081C4.9838 13.3541 5.48219 13.8511 6.13008 13.8511L10.4457 13.8511C12.9341 13.8511 14.9514 15.8684 14.9514 18.3568C14.9514 18.6678 14.6992 18.92 14.3882 18.92L6.13008 18.92C5.48219 18.92 4.9838 18.423 4.9838 17.777V14.9941C4.9838 14.348 4.48542 13.8511 3.83753 13.8511H1.14628C0.498381 13.8511 0 13.3541 0 12.7081V6.21191C0 5.56587 0.498381 5.06892 1.14628 5.06892H3.83753C4.48542 5.06892 4.98381 4.57196 4.98381 3.92593V1.14299Z" fill="#5D4BFF"/>
</svg>
