<svg width="86" height="18" viewBox="0 0 86 18" fill="none" xmlns="http://www.w3.org/2000/svg">
<path d="M8.83352 16.4273C9.46538 16.4273 10.0495 16.2919 10.5859 16.0212C11.1222 15.7429 11.5521 15.3443 11.8754 14.8254C12.1987 14.3064 12.3603 13.6747 12.3603 12.9301C12.3603 12.1856 12.1987 11.5651 11.8754 11.0688C11.5521 10.5648 11.1222 10.1851 10.5859 9.92937C10.0495 9.67363 9.46538 9.54581 8.83352 9.54581H5.07526C4.84008 9.54581 4.68951 9.58339 4.62338 9.65862C4.56455 9.73386 4.53521 9.89926 4.53521 10.155V15.9986C4.53521 16.1866 4.57192 16.3069 4.64542 16.3596C4.71885 16.4047 4.8511 16.4273 5.04219 16.4273H8.83352ZM5.07526 8.30489H8.61309C9.17145 8.30489 9.70047 8.19581 10.2002 7.97774C10.7071 7.75966 11.1186 7.42123 11.4345 6.96244C11.7578 6.49618 11.9195 5.89073 11.9195 5.14618C11.9195 4.40162 11.7578 3.79618 11.4345 3.32992C11.1186 2.86366 10.7071 2.52523 10.2002 2.31462C9.70047 2.09655 9.17145 1.98747 8.61309 1.98747H4.92096C4.74462 1.98747 4.6344 2.02504 4.59032 2.10028C4.55353 2.17551 4.53521 2.30707 4.53521 2.49512V7.85364C4.53521 8.07172 4.56828 8.20336 4.6344 8.24848C4.70783 8.28606 4.85483 8.30489 5.07526 8.30489ZM9.05394 17.6682H0.468353C0.299306 17.6682 0.181799 17.6532 0.115671 17.6231C0.0495433 17.5855 0.0164795 17.4802 0.0164795 17.3072V16.8108C0.0164795 16.6379 0.0458154 16.5325 0.10465 16.495C0.163403 16.4498 0.269969 16.4273 0.424267 16.4273H2.00031C2.15461 16.4273 2.26482 16.4085 2.33095 16.3709C2.40437 16.3333 2.44116 16.2392 2.44116 16.0889V2.41615C2.44116 2.21309 2.4081 2.09273 2.34197 2.05515C2.28314 2.01003 2.15088 1.98747 1.94521 1.98747H0.468353C0.284638 1.98747 0.163403 1.96864 0.10465 1.93106C0.0458154 1.88594 0.0164795 1.76939 0.0164795 1.58135V1.10754C0.0164795 0.957155 0.0421685 0.859357 0.0936283 0.814232C0.145007 0.769108 0.240552 0.746546 0.380182 0.746546H8.61309C9.72252 0.746546 10.6887 0.912029 11.5117 1.24291C12.3419 1.56633 12.9848 2.05515 13.4404 2.70946C13.8959 3.35621 14.1237 4.16845 14.1237 5.14618C14.1237 6.1239 13.9106 6.90603 13.4845 7.49265C13.0657 8.07172 12.4448 8.48165 11.6219 8.72229C11.4602 8.76741 11.3831 8.82009 11.3905 8.88022C11.3978 8.94036 11.4676 8.9893 11.5999 9.02688C12.6065 9.29763 13.389 9.74887 13.9474 10.3806C14.5058 11.0048 14.785 11.8547 14.785 12.9301C14.785 14.0583 14.5536 14.972 14.0907 15.6715C13.6278 16.3633 12.9665 16.871 12.1068 17.1944C11.2545 17.5103 10.2369 17.6682 9.05394 17.6682ZM16.8145 1.87466C16.8145 1.49865 16.9431 1.17896 17.2002 0.915762C17.4647 0.652564 17.777 0.520924 18.137 0.520924C18.5044 0.520924 18.8167 0.652564 19.0738 0.915762C19.331 1.17896 19.4596 1.49865 19.4596 1.87466C19.4596 2.2432 19.331 2.5628 19.0738 2.83355C18.8167 3.09675 18.5044 3.22839 18.137 3.22839C17.777 3.22839 17.4647 3.09675 17.2002 2.83355C16.9431 2.5628 16.8145 2.2432 16.8145 1.87466ZM16.9908 7.17678H15.5029C15.3927 7.17678 15.3266 7.16176 15.3046 7.13165C15.2825 7.09408 15.2715 7.01884 15.2715 6.90603V6.22916C15.2715 6.03365 15.3597 5.93585 15.536 5.93585H19.0298C19.1179 5.93585 19.173 5.95087 19.1951 5.98098C19.2245 6.01109 19.2392 6.07496 19.2392 6.17276V16.1565C19.2392 16.2543 19.2538 16.3258 19.2833 16.3709C19.32 16.4085 19.3824 16.4273 19.4706 16.4273H20.9585C21.0613 16.4273 21.1312 16.4386 21.1679 16.4611C21.2046 16.4837 21.223 16.5476 21.223 16.6529V17.3975C21.223 17.5027 21.212 17.5742 21.1899 17.6118C21.1753 17.6494 21.1164 17.6682 21.0136 17.6682H15.6132C15.4883 17.6682 15.4001 17.6532 15.3486 17.6231C15.2972 17.593 15.2715 17.5178 15.2715 17.3975V16.7657C15.2715 16.6153 15.2972 16.5213 15.3486 16.4837C15.4074 16.4461 15.5029 16.4273 15.6352 16.4273H17.0018C17.1267 16.4273 17.2002 16.4047 17.2223 16.3596C17.2443 16.3145 17.2553 16.2318 17.2553 16.1114V7.44752C17.2553 7.26703 17.1672 7.17678 16.9908 7.17678ZM27.7094 15.4684C27.5624 15.9196 27.3494 16.3333 27.0701 16.7093C26.7983 17.0853 26.4529 17.3862 26.0341 17.6118C25.6227 17.8299 25.1304 17.939 24.5573 17.939C23.7637 17.939 23.1944 17.7246 22.849 17.2959C22.5037 16.8672 22.331 16.3446 22.331 15.7279V7.56033C22.331 7.42496 22.3053 7.32716 22.2538 7.26703C22.2024 7.20689 22.1105 7.17678 21.9783 7.17678H20.6667C20.5124 7.17678 20.4096 7.15795 20.3582 7.12037C20.3068 7.0828 20.281 6.98873 20.281 6.83834V6.22916C20.281 6.08624 20.2994 6.00354 20.3361 5.98098C20.3802 5.95087 20.4721 5.93585 20.6116 5.93585C21.0084 5.93585 21.3318 5.90956 21.5815 5.85689C21.8314 5.80421 22.0371 5.68767 22.1987 5.50717C22.3604 5.32668 22.5037 5.04465 22.6285 4.66109C22.7535 4.27753 22.8894 3.7586 23.0363 3.1043C23.0657 2.97647 23.0988 2.88996 23.1355 2.84483C23.1723 2.79971 23.2715 2.77714 23.4331 2.77714H24.0282C24.2193 2.77714 24.3148 2.88622 24.3148 3.1043V5.58614C24.3148 5.74408 24.3516 5.84187 24.425 5.87945C24.4985 5.91703 24.6051 5.93585 24.7446 5.93585H28.488C28.635 5.93585 28.7304 5.95842 28.7745 6.00354C28.826 6.04867 28.8517 6.1502 28.8517 6.30813V6.89475C28.8517 7.03012 28.8223 7.11282 28.7635 7.14293C28.7121 7.1655 28.6202 7.17678 28.488 7.17678H24.7667C24.6124 7.17678 24.4985 7.19561 24.425 7.23318C24.3516 7.27076 24.3148 7.3761 24.3148 7.54905V15.254C24.3148 15.7053 24.403 16.0324 24.5793 16.2355C24.7556 16.4386 24.9908 16.5401 25.2847 16.5401C25.6006 16.5401 25.8836 16.4273 26.1333 16.2017C26.3905 15.9685 26.6146 15.6376 26.8056 15.2089C26.8571 15.0961 26.9012 15.0284 26.9379 15.0059C26.982 14.9833 27.0628 14.9946 27.1803 15.0397L27.533 15.1638C27.6212 15.1939 27.68 15.2278 27.7094 15.2653C27.7462 15.3029 27.7462 15.3706 27.7094 15.4684ZM45.125 15.5248C44.9266 16.2092 44.5775 16.777 44.0779 17.2282C43.5856 17.6719 42.8876 17.8938 41.9839 17.8938C41.2491 17.8938 40.698 17.7509 40.3307 17.4651C39.9633 17.1718 39.7135 16.7883 39.5812 16.3145C39.449 15.8331 39.3718 15.3105 39.3498 14.7464C39.3278 14.1748 39.2983 13.607 39.2616 13.043C39.2322 12.4713 39.133 11.9487 38.9641 11.4749C38.8024 10.9935 38.5122 10.61 38.0934 10.3242C37.6746 10.0309 37.061 9.88424 36.2528 9.88424H33.4534C33.2109 9.88424 33.0639 9.92182 33.0126 9.99705C32.9685 10.0647 32.9464 10.2227 32.9464 10.4709V16.0437C32.9464 16.2167 32.9758 16.3258 33.0346 16.3709C33.0933 16.4085 33.2109 16.4273 33.3873 16.4273H35.0294C35.1837 16.4273 35.2792 16.4536 35.316 16.5063C35.3527 16.5589 35.3711 16.6679 35.3711 16.8334V17.3411C35.3711 17.484 35.3453 17.5742 35.294 17.6118C35.2499 17.6494 35.1543 17.6682 35.0074 17.6682H28.7693C28.6297 17.6682 28.5379 17.6456 28.4938 17.6005C28.4497 17.5478 28.4277 17.4501 28.4277 17.3072V16.8221C28.4277 16.6492 28.4534 16.5401 28.5048 16.495C28.5636 16.4498 28.6702 16.4273 28.8245 16.4273H30.3234C30.5511 16.4273 30.6943 16.4047 30.7532 16.3596C30.8193 16.3069 30.8524 16.1678 30.8524 15.9422V2.52896C30.8524 2.28833 30.8193 2.13786 30.7532 2.07772C30.6943 2.01758 30.5474 1.98747 30.3123 1.98747H28.8245C28.6334 1.98747 28.5195 1.95362 28.4828 1.88594C28.446 1.81825 28.4277 1.68288 28.4277 1.47982V1.1301C28.4277 0.979716 28.4424 0.878186 28.4718 0.825513C28.5085 0.772841 28.5967 0.746546 28.7363 0.746546H37.1345C38.4644 0.746546 39.5334 0.949605 40.3417 1.35573C41.1499 1.76185 41.734 2.30707 42.0941 2.99149C42.4614 3.6759 42.6452 4.43174 42.6452 5.25899C42.6452 6.18404 42.4358 6.98127 42.017 7.65058C41.5981 8.31244 40.8634 8.80881 39.8127 9.13969C39.6069 9.20738 39.5004 9.2788 39.4931 9.35403C39.4931 9.42927 39.6143 9.5308 39.8568 9.65862C40.4005 9.95193 40.7936 10.3205 41.0361 10.7642C41.2858 11.2079 41.4475 11.6855 41.521 12.1969C41.5944 12.7083 41.6275 13.2122 41.6202 13.7085C41.6202 14.2049 41.6312 14.6599 41.6532 15.0736C41.6826 15.4797 41.7745 15.8068 41.9288 16.055C42.0904 16.3032 42.3733 16.4273 42.7774 16.4273C42.9831 16.4273 43.1889 16.3333 43.3946 16.1453C43.6077 15.9572 43.795 15.6677 43.9567 15.2766C43.9934 15.1864 44.0298 15.0317 44.0666 14.979C44.1107 14.9189 44.1881 14.9909 44.2984 15.0284L44.8494 15.2089C44.9596 15.2465 45.0404 15.2842 45.0919 15.3217C45.1433 15.3593 45.1543 15.427 45.125 15.5248ZM33.4644 8.53051H37.1345C37.6929 8.53051 38.2219 8.41397 38.7216 8.18079C39.2286 7.94016 39.64 7.57916 39.956 7.09781C40.2792 6.61645 40.4409 6.00354 40.4409 5.25899C40.4409 4.51444 40.2792 3.90152 39.956 3.42017C39.64 2.93135 39.2286 2.57035 38.7216 2.33718C38.2219 2.10401 37.6929 1.98747 37.1345 1.98747H33.4644C33.2072 1.98747 33.0566 2.01003 33.0126 2.05515C32.9685 2.10028 32.9464 2.25448 32.9464 2.51768V7.98902C32.9464 8.22219 32.9721 8.37257 33.0236 8.44026C33.0823 8.5004 33.2292 8.53051 33.4644 8.53051ZM45.4584 11.5764C45.4584 12.509 45.5356 13.3777 45.6899 14.1823C45.8515 14.987 46.1454 15.6376 46.5716 16.134C46.9977 16.6303 47.6112 16.8785 48.4121 16.8785C49.0146 16.8785 49.5069 16.7394 49.889 16.4611C50.2784 16.1754 50.5796 15.7993 50.7927 15.333C51.0058 14.8668 51.1527 14.3478 51.2336 13.7762C51.3218 13.1972 51.3658 12.6143 51.3658 12.0277C51.3658 11.0951 51.285 10.2264 51.1234 9.42172C50.9691 8.61703 50.6788 7.96645 50.2527 7.47009C49.8265 6.97372 49.213 6.72553 48.4121 6.72553C47.8096 6.72553 47.3137 6.86845 46.9243 7.15421C46.5422 7.43251 46.2446 7.80479 46.0315 8.27104C45.8184 8.7373 45.6678 9.26005 45.5797 9.83912C45.4988 10.4107 45.4584 10.9898 45.4584 11.5764ZM43.144 12.0277C43.144 10.8243 43.335 9.74887 43.7171 8.80126C44.1065 7.8461 44.6906 7.09408 45.4695 6.54504C46.2482 5.98853 47.2291 5.71023 48.4121 5.71023C49.5951 5.71023 50.576 5.98098 51.3548 6.52247C52.1336 7.05642 52.7141 7.77094 53.0962 8.66588C53.4856 9.55336 53.6803 10.5235 53.6803 11.5764C53.6803 12.7798 53.4856 13.8589 53.0962 14.8141C52.7141 15.7617 52.1336 16.5138 51.3548 17.0703C50.576 17.6193 49.5951 17.8938 48.4121 17.8938C47.2291 17.8938 46.2482 17.6268 45.4695 17.0929C44.6906 16.5514 44.1065 15.8369 43.7171 14.9495C43.335 14.0545 43.144 13.0805 43.144 12.0277ZM57.2293 11.802C57.2293 12.6594 57.3615 13.4641 57.626 14.2162C57.8905 14.9607 58.2653 15.5662 58.7502 16.0324C59.2425 16.4912 59.8229 16.7206 60.4916 16.7206C61.1091 16.7206 61.6488 16.4912 62.1115 16.0324C62.5743 15.5662 62.9349 14.9607 63.1918 14.2162C63.4487 13.4641 63.5775 12.6594 63.5775 11.802C63.5775 10.9447 63.4487 10.1437 63.1918 9.39915C62.9349 8.64705 62.5743 8.04169 62.1115 7.5829C61.6488 7.11664 61.1091 6.88347 60.4916 6.88347C59.8229 6.88347 59.2425 7.11664 58.7502 7.5829C58.2653 8.04169 57.8905 8.64705 57.626 9.39915C57.3615 10.1437 57.2293 10.9447 57.2293 11.802ZM53.449 1.3106C53.3755 1.3106 53.3241 1.29177 53.2947 1.2542C53.2726 1.21662 53.2616 1.16021 53.2616 1.08498V0.238897C53.2616 0.178758 53.269 0.137366 53.2836 0.114804C53.2983 0.0846936 53.3314 0.0696793 53.3828 0.0696793H57.0529C57.1117 0.0696793 57.1558 0.0809608 57.1852 0.103523C57.2146 0.118537 57.2293 0.156196 57.2293 0.216334V7.88749C57.2293 8.05297 57.2366 8.15068 57.2513 8.18079C57.266 8.20336 57.2954 8.16951 57.3395 8.07927C57.7068 7.34226 58.1918 6.76692 58.7943 6.35326C59.3968 5.93959 60.0948 5.7328 60.8883 5.7328C61.7631 5.7328 62.571 5.97343 63.3133 6.45479C64.0548 6.92859 64.6505 7.62047 65.0986 8.53051C65.5541 9.433 65.7818 10.5235 65.7818 11.802C65.7818 13.0805 65.5541 14.1748 65.0986 15.0848C64.6505 15.9949 64.0548 16.6905 63.3133 17.1718C62.571 17.6532 61.7631 17.8938 60.8883 17.8938C60.1168 17.8938 59.4335 17.702 58.8384 17.3185C58.2506 16.9274 57.7729 16.3784 57.4056 15.6715C57.3321 15.5361 57.2844 15.4834 57.2623 15.5135C57.2403 15.5361 57.2293 15.6827 57.2293 15.9535V17.2621C57.2293 17.3749 57.2109 17.4727 57.1742 17.5554C57.1447 17.6306 57.0713 17.6682 56.9537 17.6682H53.471C53.3828 17.6682 53.3241 17.6607 53.2947 17.6456C53.2726 17.6231 53.2616 17.5667 53.2616 17.4764V16.6078C53.2616 16.5325 53.2763 16.4837 53.3057 16.4611C53.3424 16.4386 53.3975 16.4273 53.471 16.4273H55.0581C55.1389 16.4273 55.1903 16.416 55.2124 16.3934C55.2344 16.3633 55.2454 16.3069 55.2454 16.2242V1.53622C55.2454 1.38584 55.1867 1.3106 55.0691 1.3106H53.449ZM68.8151 11.5764C68.8151 12.509 68.8929 13.3777 69.0469 14.1823C69.2081 14.987 69.5023 15.6376 69.9286 16.134C70.3548 16.6303 70.9683 16.8785 71.7689 16.8785C72.3719 16.8785 72.8638 16.7394 73.2463 16.4611C73.6353 16.1754 73.9367 15.7993 74.1499 15.333C74.363 14.8668 74.5097 14.3478 74.5907 13.7762C74.6791 13.1972 74.7228 12.6143 74.7228 12.0277C74.7228 11.0951 74.6418 10.2264 74.4805 9.42172C74.3257 8.61703 74.0356 7.96645 73.6093 7.47009C73.1839 6.97372 72.5696 6.72553 71.7689 6.72553C71.1668 6.72553 70.6709 6.86845 70.2811 7.15421C69.8994 7.43251 69.602 7.80479 69.3888 8.27104C69.1757 8.7373 69.025 9.26005 68.9366 9.83912C68.8556 10.4107 68.8151 10.9898 68.8151 11.5764ZM66.5006 12.0277C66.5006 10.8243 66.6919 9.74887 67.0744 8.80126C67.4633 7.8461 68.0476 7.09408 68.8264 6.54504C69.6052 5.98853 70.5858 5.71023 71.7689 5.71023C72.9521 5.71023 73.9327 5.98098 74.7115 6.52247C75.4903 7.05642 76.0713 7.77094 76.453 8.66588C76.8428 9.55336 77.0373 10.5235 77.0373 11.5764C77.0373 12.7798 76.8428 13.8589 76.453 14.8141C76.0713 15.7617 75.4903 16.5138 74.7115 17.0703C73.9327 17.6193 72.9521 17.8938 71.7689 17.8938C70.5858 17.8938 69.6052 17.6268 68.8264 17.0929C68.0476 16.5514 67.4633 15.8369 67.0744 14.9495C66.6919 14.0545 66.5006 13.0805 66.5006 12.0277ZM84.2003 15.4684C84.0536 15.9196 83.8405 16.3333 83.5617 16.7093C83.2894 17.0853 82.9442 17.3862 82.5252 17.6118C82.1136 17.8299 81.6217 17.939 81.0487 17.939C80.2553 17.939 79.6856 17.7246 79.3404 17.2959C78.9952 16.8672 78.8226 16.3446 78.8226 15.7279V7.56033C78.8226 7.42496 78.7966 7.32716 78.7448 7.26703C78.6937 7.20689 78.6022 7.17678 78.4693 7.17678H77.158C77.0041 7.17678 76.9011 7.15795 76.8493 7.12037C76.7982 7.0828 76.7723 6.98873 76.7723 6.83834V6.22916C76.7723 6.08624 76.7909 6.00354 76.8274 5.98098C76.8712 5.95087 76.9635 5.93585 77.1029 5.93585C77.5 5.93585 77.8234 5.90956 78.073 5.85689C78.3226 5.80421 78.5284 5.68767 78.6897 5.50717C78.8518 5.32668 78.9952 5.04465 79.12 4.66109C79.2448 4.27753 79.3809 3.7586 79.5276 3.1043C79.5568 2.97647 79.59 2.88996 79.6265 2.84483C79.6638 2.79971 79.7626 2.77714 79.9247 2.77714H80.5195C80.7108 2.77714 80.8064 2.88622 80.8064 3.1043V5.58614C80.8064 5.74408 80.8429 5.84187 80.9166 5.87945C80.9896 5.91703 81.0965 5.93585 81.2359 5.93585H83.6825C83.83 5.93585 83.9248 5.95842 83.9694 6.00354C84.0204 6.04867 84.0463 6.1502 84.0463 6.30813V6.89475C84.0463 7.03012 84.0172 7.11282 83.958 7.14293C83.907 7.1655 83.8146 7.17678 83.6825 7.17678H81.2578C81.1038 7.17678 80.9896 7.19561 80.9166 7.23318C80.8429 7.27076 80.8064 7.3761 80.8064 7.54905V15.254C80.8064 15.7053 80.8939 16.0324 81.0706 16.2355C81.2473 16.4386 81.4823 16.5401 81.7756 16.5401C82.0917 16.5401 82.3745 16.4273 82.6249 16.2017C82.8818 15.9685 83.1055 15.6376 83.2967 15.2089C83.3486 15.0961 83.3924 15.0284 83.4288 15.0059C83.4734 14.9833 83.5544 14.9946 83.672 15.0397L84.0245 15.1638C84.1128 15.1939 84.1712 15.2278 84.2003 15.2653C84.2376 15.3029 84.2376 15.3706 84.2003 15.4684Z" fill="#5D4BFF"/>
</svg>
