<svg width="488" height="301" viewBox="0 0 488 301" fill="none" xmlns="http://www.w3.org/2000/svg">
<rect x="0.5" y="0.5" width="487" height="300" rx="15.5" stroke="#EEECFE"/>
<path d="M22.6094 33H16.8984V25H22.6094V26.1445H18.0391V28.1445H22.0391V29.2891H18.0391V31.8594H22.6094V33ZM24.8984 33H23.7578V31.2891H24.3281V29.5742H24.8984V27.8594H25.4688V26.1445H26.043V25H27.7578V26.1445H28.3281V27.8594H28.8984V29.5742H29.4688V31.2891H30.043V33H28.8984V31.2891H24.8984V33ZM25.4688 30.1445H28.3281V29.5742H27.7578V27.8594H27.1836V26.7148H26.6133V27.8594H26.043V29.5742H25.4688V30.1445ZM32.3203 33H31.1797V25H36.3203V25.5742H36.8906V26.1445H37.4648V28.7148H36.8906V29.2891H36.3203V29.8594H36.8906V30.4297H37.4648V33H36.3203V31H35.75V30.4297H35.1797V29.8594H32.3203V33ZM32.3203 28.7148H35.75V28.1445H36.3203V26.7148H35.75V26.1445H32.3203V28.7148ZM39.7422 33H38.6016V25H40.3125V26.1445H40.8867V27.2891H41.457V28.4297H42.0273V29.5742H42.6016V30.7148H43.1719V25H44.3125V33H42.6016V31.8594H42.0273V30.7148H41.457V29.5742H40.8867V28.4297H40.3125V27.2891H39.7422V33ZM46.6016 33H45.4609V25H46.6016V33ZM48.8828 33H47.7422V25H49.4531V26.1445H50.0273V27.2891H50.5977V28.4297H51.168V29.5742H51.7422V30.7148H52.3125V25H53.4531V33H51.7422V31.8594H51.168V30.7148H50.5977V29.5742H50.0273V28.4297H49.4531V27.2891H48.8828V33ZM59.1719 33H56.3125V32.4297H55.7422V31.8594H55.1719V31.2891H54.6016V26.7148H55.1719V26.1445H55.7422V25.5742H56.3125V25H59.7422V25.5742H60.3125V26.1445H60.8867V26.7148H61.457V27.8594H60.3125V27.2891H59.7422V26.7148H59.1719V26.1445H56.8867V26.7148H56.3125V27.2891H55.7422V30.7148H56.3125V31.2891H56.8867V31.8594H59.1719V31.2891H59.7422V30.7148H60.3125V30.1445H58.6016V29H61.457V33H60.3125V31.8594H59.7422V32.4297H59.1719V33ZM67.7422 33H63.7422V32.4297H63.1719V31.8594H62.6016V30.7148H63.7422V31.2891H64.3125V31.8594H67.1719V31.2891H67.7422V30.1445H67.1719V29.5742H64.3125V29H63.1719V28.4297H62.6016V26.1445H63.1719V25.5742H63.7422V25H67.7422V25.5742H68.3125V26.1445H68.8867V27.2891H67.7422V26.7148H67.1719V26.1445H64.3125V26.7148H63.7422V27.8594H64.3125V28.4297H67.1719V29H68.3125V29.5742H68.8867V31.8594H68.3125V32.4297H67.7422V33ZM73.4453 33H72.3047V25H73.4453V28.1445H77.4453V25H78.5898V33H77.4453V29.2891H73.4453V33ZM80.8672 33H79.7266V25H80.8672V33ZM87.1484 33H83.1484V32.4297H82.5781V31.8594H82.0078V30.7148H83.1484V31.2891H83.7188V31.8594H86.5781V31.2891H87.1484V30.1445H86.5781V29.5742H83.7188V29H82.5781V28.4297H82.0078V26.1445H82.5781V25.5742H83.1484V25H87.1484V25.5742H87.7188V26.1445H88.293V27.2891H87.1484V26.7148H86.5781V26.1445H83.7188V26.7148H83.1484V27.8594H83.7188V28.4297H86.5781V29H87.7188V29.5742H88.293V31.8594H87.7188V32.4297H87.1484V33ZM92.2891 33H91.1484V26.1445H88.8633V25H94.5742V26.1445H92.2891V33ZM100.289 33H96.8594V32.4297H96.2891V31.8594H95.7188V31.2891H95.1484V26.7148H95.7188V26.1445H96.2891V25.5742H96.8594V25H100.289V25.5742H100.859V26.1445H101.434V26.7148H102.004V31.2891H101.434V31.8594H100.859V32.4297H100.289V33ZM97.4336 31.8594H99.7188V31.2891H100.289V30.7148H100.859V27.2891H100.289V26.7148H99.7188V26.1445H97.4336V26.7148H96.8594V27.2891H96.2891V30.7148H96.8594V31.2891H97.4336V31.8594ZM104.289 33H103.148V25H108.289V25.5742H108.859V26.1445H109.434V28.7148H108.859V29.2891H108.289V29.8594H108.859V30.4297H109.434V33H108.289V31H107.719V30.4297H107.148V29.8594H104.289V33ZM104.289 28.7148H107.719V28.1445H108.289V26.7148H107.719V26.1445H104.289V28.7148ZM113.43 33H112.289V29.5742H111.715V28.4297H111.145V27.2891H110.574V26.1445H110.004V25H111.145V26.1445H111.715V27.2891H112.289V28.4297H113.43V27.2891H114.004V26.1445H114.574V25H115.715V26.1445H115.145V27.2891H114.574V28.4297H114.004V29.5742H113.43V33Z" fill="#5D4BFF"/>
<path d="M19.1406 81.3787H17.9961V75.3787H16.2852V74.5233H17.9961V73.3787H19.1406V81.3787ZM21.4297 81.3787H20.2891V80.2381H21.4297V81.3787ZM24.2812 81.3787H23.1367V75.3787H21.4258V74.5233H23.1367V73.3787H24.2812V81.3787ZM26.5703 81.3787H25.4297V73.3787H26.5703V76.2381H27.1406V75.6678H27.7148V75.0936H28.2852V74.5233H28.8555V73.9529H29.4297V73.3787H30.8555V73.9529H30.2852V74.5233H29.7148V75.0936H29.1406V75.6678H28.5703V76.2381H28V76.8084H27.4297V77.9529H28V78.5233H28.5703V79.0936H29.1406V79.6678H29.7148V80.2381H30.2852V80.8084H30.8555V81.3787H29.4297V80.8084H28.8555V80.2381H28.2852V79.6678H27.7148V79.0936H27.1406V78.5233H26.5703V81.3787Z" fill="#5D4BFF"/>
<line x1="40.3573" y1="77.6176" x2="472" y2="77.6176" stroke="#EEECFE" stroke-width="0.52233"/>
<path d="M19.1406 118.192H17.9961V112.192H16.2852V111.336H17.9961V110.192H19.1406V118.192ZM21.4297 118.192H20.2891V110.192H21.4297V113.051H22V112.481H22.5742V111.907H23.1445V111.336H23.7148V110.766H24.2891V110.192H25.7148V110.766H25.1445V111.336H24.5742V111.907H24V112.481H23.4297V113.051H22.8594V113.622H22.2891V114.766H22.8594V115.336H23.4297V115.907H24V116.481H24.5742V117.051H25.1445V117.622H25.7148V118.192H24.2891V117.622H23.7148V117.051H23.1445V116.481H22.5742V115.907H22V115.336H21.4297V118.192Z" fill="#5D4BFF"/>
<line x1="35.3573" y1="114.431" x2="472" y2="114.431" stroke="#EEECFE" stroke-width="0.52233"/>
<path d="M20.5703 155.005H17.7109V154.435H17.1406V153.864H16.5703V152.72H17.7109V153.294H18.2812V153.864H19.9961V153.294H20.5703V151.579H19.9961V152.149H17.7109V151.579H17.1406V151.005H16.5703V148.149H17.1406V147.579H17.7109V147.005H20.5703V147.579H21.1406V148.149H21.7109V153.864H21.1406V154.435H20.5703V155.005ZM18.2812 151.005H19.9961V150.435H20.5703V148.72H19.9961V148.149H18.2812V148.72H17.7109V150.435H18.2812V151.005ZM26.8516 155.005H23.9922V154.435H23.4219V153.864H22.8516V148.149H23.4219V147.579H23.9922V147.005H26.8516V147.579H27.4219V148.149H27.9922V153.864H27.4219V154.435H26.8516V155.005ZM24.5625 153.864H26.2773V153.294H26.8516V148.72H26.2773V148.149H24.5625V148.72H23.9922V153.294H24.5625V153.864ZM33.1328 155.005H30.2734V154.435H29.7031V153.864H29.1328V148.149H29.7031V147.579H30.2734V147.005H33.1328V147.579H33.7031V148.149H34.2734V153.864H33.7031V154.435H33.1328V155.005ZM30.8438 153.864H32.5586V153.294H33.1328V148.72H32.5586V148.149H30.8438V148.72H30.2734V153.294H30.8438V153.864Z" fill="#5D4BFF"/>
<line x1="43.3573" y1="151.244" x2="472" y2="151.244" stroke="#EEECFE" stroke-width="0.52233"/>
<path d="M20.5703 191.818H17.7109V191.248H17.1406V190.677H16.5703V188.107H17.1406V187.248H16.5703V184.963H17.1406V184.392H17.7109V183.818H20.5703V184.392H21.1406V184.963H21.7109V187.248H21.1406V188.107H21.7109V190.677H21.1406V191.248H20.5703V191.818ZM18.2812 187.248H19.9961V186.677H20.5703V185.533H19.9961V184.963H18.2812V185.533H17.7109V186.677H18.2812V187.248ZM18.2812 190.677H19.9961V190.107H20.5703V188.677H19.9961V188.107H18.2812V188.677H17.7109V190.107H18.2812V190.677ZM26.8516 191.818H23.9922V191.248H23.4219V190.677H22.8516V184.963H23.4219V184.392H23.9922V183.818H26.8516V184.392H27.4219V184.963H27.9922V190.677H27.4219V191.248H26.8516V191.818ZM24.5625 190.677H26.2773V190.107H26.8516V185.533H26.2773V184.963H24.5625V185.533H23.9922V190.107H24.5625V190.677ZM33.1328 191.818H30.2734V191.248H29.7031V190.677H29.1328V184.963H29.7031V184.392H30.2734V183.818H33.1328V184.392H33.7031V184.963H34.2734V190.677H33.7031V191.248H33.1328V191.818ZM30.8438 190.677H32.5586V190.107H33.1328V185.533H32.5586V184.963H30.8438V185.533H30.2734V190.107H30.8438V190.677Z" fill="#5D4BFF"/>
<line x1="43.3573" y1="188.057" x2="472" y2="188.057" stroke="#EEECFE" stroke-width="0.52233"/>
<path d="M18.5703 228.631H17.4258V226.346H17.9961V224.631H18.5703V223.49H19.1406V222.92H19.7109V222.346H20.2852V221.776H16.2852V220.631H21.4258V222.92H20.8555V223.49H20.2852V224.061H19.7109V225.205H19.1406V226.346H18.5703V228.631ZM26.2891 228.631H23.4297V228.061H22.8594V227.49H22.2891V221.776H22.8594V221.205H23.4297V220.631H26.2891V221.205H26.8594V221.776H27.4297V227.49H26.8594V228.061H26.2891V228.631ZM24 227.49H25.7148V226.92H26.2891V222.346H25.7148V221.776H24V222.346H23.4297V226.92H24V227.49ZM32.5703 228.631H29.7109V228.061H29.1406V227.49H28.5703V221.776H29.1406V221.205H29.7109V220.631H32.5703V221.205H33.1406V221.776H33.7109V227.49H33.1406V228.061H32.5703V228.631ZM30.2812 227.49H31.9961V226.92H32.5703V222.346H31.9961V221.776H30.2812V222.346H29.7109V226.92H30.2812V227.49Z" fill="#5D4BFF"/>
<line x1="43.3573" y1="224.87" x2="472" y2="224.87" stroke="#EEECFE" stroke-width="0.52233"/>
<rect x="58.75" y="101.662" width="51.0609" height="27" rx="8" fill="#EEECFE"/>
<path d="M79.4288 118.662H76.5695V118.092H75.9991V117.521H75.4288V114.951H75.9991V114.092H75.4288V111.807H75.9991V111.236H76.5695V110.662H79.4288V111.236H79.9991V111.807H80.5695V114.092H79.9991V114.951H80.5695V117.521H79.9991V118.092H79.4288V118.662ZM77.1398 114.092H78.8546V113.521H79.4288V112.377H78.8546V111.807H77.1398V112.377H76.5695V113.521H77.1398V114.092ZM77.1398 117.521H78.8546V116.951H79.4288V115.521H78.8546V114.951H77.1398V115.521H76.5695V116.951H77.1398V117.521ZM85.7101 118.662H82.8507V118.092H82.2804V117.521H81.7101V111.807H82.2804V111.236H82.8507V110.662H85.7101V111.236H86.2804V111.807H86.8507V117.521H86.2804V118.092H85.7101V118.662ZM83.421 117.521H85.1359V116.951H85.7101V112.377H85.1359V111.807H83.421V112.377H82.8507V116.951H83.421V117.521ZM91.9913 118.662H89.132V118.092H88.5616V117.521H87.9913V111.807H88.5616V111.236H89.132V110.662H91.9913V111.236H92.5616V111.807H93.132V117.521H92.5616V118.092H91.9913V118.662ZM89.7023 117.521H91.4171V116.951H91.9913V112.377H91.4171V111.807H89.7023V112.377H89.132V116.951H89.7023V117.521Z" fill="#5D4BFF"/>
<path d="M58.75 140.841C58.75 138.533 60.6208 136.662 62.9286 136.662H105.632C107.94 136.662 109.811 138.533 109.811 140.841V261.464H58.75V140.841Z" fill="#EEECFE"/>
<mask id="path-16-inside-1_1_1068" fill="white">
<path d="M58.75 265.643H109.811V285H58.75V265.643Z"/>
</mask>
<path d="M58.75 265.643V266.165H109.811V265.643V265.12H58.75V265.643Z" fill="#EEECFE" mask="url(#path-16-inside-1_1_1068)"/>
<path d="M78.9913 278.821H75.5616V278.251H74.9913V277.681H74.421V277.11H73.8507V272.536H74.421V271.966H74.9913V271.396H75.5616V270.821H78.9913V271.396H79.5616V271.966H80.1359V272.536H80.7062V277.11H80.1359V277.681H79.5616V278.251H78.9913V278.821ZM76.1359 277.681H78.421V277.11H78.9913V276.536H79.5616V273.11H78.9913V272.536H78.421V271.966H76.1359V272.536H75.5616V273.11H74.9913V276.536H75.5616V277.11H76.1359V277.681ZM86.9913 278.821H83.5616V278.251H82.9913V277.681H82.421V277.11H81.8507V272.536H82.421V271.966H82.9913V271.396H83.5616V270.821H86.9913V271.396H87.5616V271.966H88.1359V272.536H88.7062V273.681H87.5616V273.11H86.9913V272.536H86.421V271.966H84.1359V272.536H83.5616V273.11H82.9913V276.536H83.5616V277.11H84.1359V277.681H86.421V277.11H86.9913V276.536H87.5616V275.966H88.7062V277.11H88.1359V277.681H87.5616V278.251H86.9913V278.821ZM92.7101 278.821H91.5695V271.966H89.2843V270.821H94.9952V271.966H92.7101V278.821Z" fill="#5D4BFF"/>
<rect x="117.811" y="101.662" width="51.0609" height="27" rx="8" fill="#EEECFE"/>
<path d="M138.49 118.662H135.63V118.092H135.06V117.521H134.49V114.951H135.06V114.092H134.49V111.807H135.06V111.236H135.63V110.662H138.49V111.236H139.06V111.807H139.63V114.092H139.06V114.951H139.63V117.521H139.06V118.092H138.49V118.662ZM136.201 114.092H137.916V113.521H138.49V112.377H137.916V111.807H136.201V112.377H135.63V113.521H136.201V114.092ZM136.201 117.521H137.916V116.951H138.49V115.521H137.916V114.951H136.201V115.521H135.63V116.951H136.201V117.521ZM144.771 118.662H141.912V118.092H141.341V117.521H140.771V111.807H141.341V111.236H141.912V110.662H144.771V111.236H145.341V111.807H145.912V117.521H145.341V118.092H144.771V118.662ZM142.482 117.521H144.197V116.951H144.771V112.377H144.197V111.807H142.482V112.377H141.912V116.951H142.482V117.521ZM151.052 118.662H148.193V118.092H147.623V117.521H147.052V111.807H147.623V111.236H148.193V110.662H151.052V111.236H151.623V111.807H152.193V117.521H151.623V118.092H151.052V118.662ZM148.763 117.521H150.478V116.951H151.052V112.377H150.478V111.807H148.763V112.377H148.193V116.951H148.763V117.521Z" fill="#5D4BFF"/>
<path d="M117.811 140.841C117.811 138.533 119.682 136.662 121.99 136.662H164.693C167.001 136.662 168.872 138.533 168.872 140.841V261.464H117.811V140.841Z" fill="#EEECFE"/>
<mask id="path-22-inside-2_1_1068" fill="white">
<path d="M117.811 265.643H168.872V285H117.811V265.643Z"/>
</mask>
<path d="M117.811 265.643V266.165H168.872V265.643V265.12H117.811V265.643Z" fill="#EEECFE" mask="url(#path-22-inside-2_1_1068)"/>
<path d="M134.193 278.821H133.052V270.821H134.763V271.966H135.337V273.11H135.908V274.251H136.478V275.396H137.052V276.536H137.623V270.821H138.763V278.821H137.052V277.681H136.478V276.536H135.908V275.396H135.337V274.251H134.763V273.11H134.193V278.821ZM145.052 278.821H141.623V278.251H141.052V277.681H140.482V277.11H139.912V272.536H140.482V271.966H141.052V271.396H141.623V270.821H145.052V271.396H145.623V271.966H146.197V272.536H146.767V277.11H146.197V277.681H145.623V278.251H145.052V278.821ZM142.197 277.681H144.482V277.11H145.052V276.536H145.623V273.11H145.052V272.536H144.482V271.966H142.197V272.536H141.623V273.11H141.052V276.536H141.623V277.11H142.197V277.681ZM151.626 278.821H149.912V277.681H149.337V275.966H148.767V274.251H148.197V272.536H147.626V270.821H148.767V272.536H149.337V274.251H149.912V275.966H150.482V277.11H151.052V275.966H151.626V274.251H152.197V272.536H152.767V270.821H153.912V272.536H153.337V274.251H152.767V275.966H152.197V277.681H151.626V278.821Z" fill="#5D4BFF"/>
<rect x="176.872" y="101.662" width="51.0609" height="27" rx="8" fill="#EEECFE"/>
<path d="M197.551 118.662H194.691V118.092H194.121V117.521H193.551V114.951H194.121V114.092H193.551V111.807H194.121V111.236H194.691V110.662H197.551V111.236H198.121V111.807H198.691V114.092H198.121V114.951H198.691V117.521H198.121V118.092H197.551V118.662ZM195.262 114.092H196.977V113.521H197.551V112.377H196.977V111.807H195.262V112.377H194.691V113.521H195.262V114.092ZM195.262 117.521H196.977V116.951H197.551V115.521H196.977V114.951H195.262V115.521H194.691V116.951H195.262V117.521ZM203.832 118.662H200.973V118.092H200.402V117.521H199.832V111.807H200.402V111.236H200.973V110.662H203.832V111.236H204.402V111.807H204.973V117.521H204.402V118.092H203.832V118.662ZM201.543 117.521H203.258V116.951H203.832V112.377H203.258V111.807H201.543V112.377H200.973V116.951H201.543V117.521ZM210.113 118.662H207.254V118.092H206.684V117.521H206.113V111.807H206.684V111.236H207.254V110.662H210.113V111.236H210.684V111.807H211.254V117.521H210.684V118.092H210.113V118.662ZM207.824 117.521H209.539V116.951H210.113V112.377H209.539V111.807H207.824V112.377H207.254V116.951H207.824V117.521Z" fill="#5D4BFF"/>
<path d="M176.872 140.841C176.872 138.533 178.743 136.662 181.05 136.662H223.754C226.062 136.662 227.933 138.533 227.933 140.841V261.464H176.872V140.841Z" fill="#EEECFE"/>
<mask id="path-28-inside-3_1_1068" fill="white">
<path d="M176.872 265.643H227.933V285H176.872V265.643Z"/>
</mask>
<path d="M176.872 265.643V266.165H227.933V265.643V265.12H176.872V265.643Z" fill="#EEECFE" mask="url(#path-28-inside-3_1_1068)"/>
<path d="M196.543 278.821H191.973V270.821H196.543V271.396H197.113V271.966H197.684V272.536H198.258V277.11H197.684V277.681H197.113V278.251H196.543V278.821ZM193.113 277.681H195.973V277.11H196.543V276.536H197.113V273.11H196.543V272.536H195.973V271.966H193.113V277.681ZM205.105 278.821H199.395V270.821H205.105V271.966H200.535V273.966H204.535V275.11H200.535V277.681H205.105V278.821ZM211.113 278.821H207.684V278.251H207.113V277.681H206.543V277.11H205.973V272.536H206.543V271.966H207.113V271.396H207.684V270.821H211.113V271.396H211.684V271.966H212.258V272.536H212.828V273.681H211.684V273.11H211.113V272.536H210.543V271.966H208.258V272.536H207.684V273.11H207.113V276.536H207.684V277.11H208.258V277.681H210.543V277.11H211.113V276.536H211.684V275.966H212.828V277.11H212.258V277.681H211.684V278.251H211.113V278.821Z" fill="#5D4BFF"/>
<rect x="235.933" y="66.6621" width="51.0609" height="27" rx="8" fill="#EEECFE"/>
<path d="M252.323 83.6621H251.178V77.6621H249.467V76.8066H251.178V75.6621H252.323V83.6621ZM254.326 84.2324H253.756V83.6621H253.186V82.5215H254.326V84.2324ZM253.756 84.8027H253.186V84.2324H253.756V84.8027ZM259.471 83.6621H256.612V83.0918H256.041V82.5215H255.471V76.8066H256.041V76.2363H256.612V75.6621H259.471V76.2363H260.041V76.8066H260.612V82.5215H260.041V83.0918H259.471V83.6621ZM257.182 82.5215H258.897V81.9512H259.471V77.377H258.897V76.8066H257.182V77.377H256.612V81.9512H257.182V82.5215ZM265.752 83.6621H262.893V83.0918H262.323V82.5215H261.752V76.8066H262.323V76.2363H262.893V75.6621H265.752V76.2363H266.323V76.8066H266.893V82.5215H266.323V83.0918H265.752V83.6621ZM263.463 82.5215H265.178V81.9512H265.752V77.377H265.178V76.8066H263.463V77.377H262.893V81.9512H263.463V82.5215ZM272.033 83.6621H269.174V83.0918H268.604V82.5215H268.033V76.8066H268.604V76.2363H269.174V75.6621H272.033V76.2363H272.604V76.8066H273.174V82.5215H272.604V83.0918H272.033V83.6621ZM269.744 82.5215H271.459V81.9512H272.033V77.377H271.459V76.8066H269.744V77.377H269.174V81.9512H269.744V82.5215Z" fill="#5D4BFF"/>
<path d="M235.933 105.841C235.933 103.533 237.803 101.662 240.111 101.662H282.815C285.123 101.662 286.994 103.533 286.994 105.841V261.464H235.933V105.841Z" fill="#EEECFE"/>
<mask id="path-34-inside-4_1_1068" fill="white">
<path d="M235.933 265.643H286.994V285H235.933V265.643Z"/>
</mask>
<path d="M235.933 265.643V266.165H286.994V265.643V265.12H235.933V265.643Z" fill="#EEECFE" mask="url(#path-34-inside-4_1_1068)"/>
<path d="M255.323 278.821H253.037V278.251H252.467V277.681H251.897V275.966H253.037V277.11H253.608V277.681H254.752V277.11H255.323V270.821H256.467V277.681H255.897V278.251H255.323V278.821ZM258.744 278.821H257.604V277.11H258.174V275.396H258.744V273.681H259.315V271.966H259.889V270.821H261.604V271.966H262.174V273.681H262.744V275.396H263.315V277.11H263.889V278.821H262.744V277.11H258.744V278.821ZM259.315 275.966H262.174V275.396H261.604V273.681H261.03V272.536H260.459V273.681H259.889V275.396H259.315V275.966ZM266.166 278.821H265.026V270.821H266.737V271.966H267.311V273.11H267.881V274.251H268.451V275.396H269.026V276.536H269.596V270.821H270.737V278.821H269.026V277.681H268.451V276.536H267.881V275.396H267.311V274.251H266.737V273.11H266.166V278.821Z" fill="#5D4BFF"/>
<rect x="294.994" y="101.662" width="51.0609" height="27" rx="8" fill="#EEECFE"/>
<path d="M315.673 118.662H312.813V118.092H312.243V117.521H311.673V114.951H312.243V114.092H311.673V111.807H312.243V111.236H312.813V110.662H315.673V111.236H316.243V111.807H316.813V114.092H316.243V114.951H316.813V117.521H316.243V118.092H315.673V118.662ZM313.384 114.092H315.098V113.521H315.673V112.377H315.098V111.807H313.384V112.377H312.813V113.521H313.384V114.092ZM313.384 117.521H315.098V116.951H315.673V115.521H315.098V114.951H313.384V115.521H312.813V116.951H313.384V117.521ZM321.954 118.662H319.094V118.092H318.524V117.521H317.954V111.807H318.524V111.236H319.094V110.662H321.954V111.236H322.524V111.807H323.094V117.521H322.524V118.092H321.954V118.662ZM319.665 117.521H321.38V116.951H321.954V112.377H321.38V111.807H319.665V112.377H319.094V116.951H319.665V117.521ZM328.235 118.662H325.376V118.092H324.805V117.521H324.235V111.807H324.805V111.236H325.376V110.662H328.235V111.236H328.805V111.807H329.376V117.521H328.805V118.092H328.235V118.662ZM325.946 117.521H327.661V116.951H328.235V112.377H327.661V111.807H325.946V112.377H325.376V116.951H325.946V117.521Z" fill="#5D4BFF"/>
<path d="M294.994 140.841C294.994 138.533 296.864 136.662 299.172 136.662H341.876C344.184 136.662 346.055 138.533 346.055 140.841V261.464H294.994V140.841Z" fill="#EEECFE"/>
<mask id="path-40-inside-5_1_1068" fill="white">
<path d="M294.994 265.643H346.055V285H294.994V265.643Z"/>
</mask>
<path d="M294.994 265.643V266.165H346.055V265.643V265.12H294.994V265.643Z" fill="#EEECFE" mask="url(#path-40-inside-5_1_1068)"/>
<path d="M311.665 278.821H310.524V270.821H316.235V271.966H311.665V274.251H315.665V275.396H311.665V278.821ZM323.094 278.821H317.384V270.821H323.094V271.966H318.524V273.966H322.524V275.11H318.524V277.681H323.094V278.821ZM329.384 278.821H324.243V270.821H328.813V271.396H329.384V271.966H329.954V274.251H329.384V274.821H329.954V275.396H330.528V277.681H329.954V278.251H329.384V278.821ZM325.384 274.251H328.243V273.681H328.813V272.536H328.243V271.966H325.384V274.251ZM325.384 277.681H328.813V277.11H329.384V275.966H328.813V275.396H325.384V277.681Z" fill="#5D4BFF"/>
<rect x="354.054" y="101.662" width="51.0609" height="27" rx="8" fill="#EEECFE"/>
<path d="M374.733 118.662H371.874V118.092H371.304V117.521H370.733V114.951H371.304V114.092H370.733V111.807H371.304V111.236H371.874V110.662H374.733V111.236H375.304V111.807H375.874V114.092H375.304V114.951H375.874V117.521H375.304V118.092H374.733V118.662ZM372.444 114.092H374.159V113.521H374.733V112.377H374.159V111.807H372.444V112.377H371.874V113.521H372.444V114.092ZM372.444 117.521H374.159V116.951H374.733V115.521H374.159V114.951H372.444V115.521H371.874V116.951H372.444V117.521ZM381.015 118.662H378.155V118.092H377.585V117.521H377.015V111.807H377.585V111.236H378.155V110.662H381.015V111.236H381.585V111.807H382.155V117.521H381.585V118.092H381.015V118.662ZM378.726 117.521H380.44V116.951H381.015V112.377H380.44V111.807H378.726V112.377H378.155V116.951H378.726V117.521ZM387.296 118.662H384.437V118.092H383.866V117.521H383.296V111.807H383.866V111.236H384.437V110.662H387.296V111.236H387.866V111.807H388.437V117.521H387.866V118.092H387.296V118.662ZM385.007 117.521H386.722V116.951H387.296V112.377H386.722V111.807H385.007V112.377H384.437V116.951H385.007V117.521Z" fill="#5D4BFF"/>
<path d="M354.054 140.841C354.054 138.533 355.925 136.662 358.233 136.662H400.937C403.244 136.662 405.115 138.533 405.115 140.841V261.464H354.054V140.841Z" fill="#EEECFE"/>
<mask id="path-46-inside-6_1_1068" fill="white">
<path d="M354.054 265.643H405.115V285H354.054V265.643Z"/>
</mask>
<path d="M354.054 265.643V266.165H405.115V265.643V265.12H354.054V265.643Z" fill="#EEECFE" mask="url(#path-46-inside-6_1_1068)"/>
<path d="M369.593 278.821H368.452V270.821H370.163V271.966H370.737V273.681H371.308V275.396H371.878V277.11H372.452V275.396H373.022V273.681H373.593V271.966H374.163V270.821H375.878V278.821H374.737V273.681H374.163V275.396H373.593V277.11H373.022V278.821H371.308V277.11H370.737V275.396H370.163V273.681H369.593V278.821ZM378.155 278.821H377.015V277.11H377.585V275.396H378.155V273.681H378.726V271.966H379.3V270.821H381.015V271.966H381.585V273.681H382.155V275.396H382.726V277.11H383.3V278.821H382.155V277.11H378.155V278.821ZM378.726 275.966H381.585V275.396H381.015V273.681H380.44V272.536H379.87V273.681H379.3V275.396H378.726V275.966ZM385.577 278.821H384.437V270.821H389.577V271.396H390.147V271.966H390.722V274.536H390.147V275.11H389.577V275.681H390.147V276.251H390.722V278.821H389.577V276.821H389.007V276.251H388.437V275.681H385.577V278.821ZM385.577 274.536H389.007V273.966H389.577V272.536H389.007V271.966H385.577V274.536Z" fill="#5D4BFF"/>
<rect x="413.115" y="101.662" width="51.0609" height="27" rx="8" fill="#EEECFE"/>
<path d="M433.794 118.662H430.935V118.092H430.365V117.521H429.794V114.951H430.365V114.092H429.794V111.807H430.365V111.236H430.935V110.662H433.794V111.236H434.365V111.807H434.935V114.092H434.365V114.951H434.935V117.521H434.365V118.092H433.794V118.662ZM431.505 114.092H433.22V113.521H433.794V112.377H433.22V111.807H431.505V112.377H430.935V113.521H431.505V114.092ZM431.505 117.521H433.22V116.951H433.794V115.521H433.22V114.951H431.505V115.521H430.935V116.951H431.505V117.521ZM440.075 118.662H437.216V118.092H436.646V117.521H436.075V111.807H436.646V111.236H437.216V110.662H440.075V111.236H440.646V111.807H441.216V117.521H440.646V118.092H440.075V118.662ZM437.786 117.521H439.501V116.951H440.075V112.377H439.501V111.807H437.786V112.377H437.216V116.951H437.786V117.521ZM446.357 118.662H443.497V118.092H442.927V117.521H442.357V111.807H442.927V111.236H443.497V110.662H446.357V111.236H446.927V111.807H447.497V117.521H446.927V118.092H446.357V118.662ZM444.068 117.521H445.782V116.951H446.357V112.377H445.782V111.807H444.068V112.377H443.497V116.951H444.068V117.521Z" fill="#5D4BFF"/>
<path d="M413.115 140.841C413.115 138.533 414.986 136.662 417.294 136.662H459.997C462.305 136.662 464.176 138.533 464.176 140.841V261.464H413.115V140.841Z" fill="#EEECFE"/>
<mask id="path-52-inside-7_1_1068" fill="white">
<path d="M413.115 265.643H464.176V285H413.115V265.643Z"/>
</mask>
<path d="M413.115 265.643V266.165H464.176V265.643V265.12H413.115V265.643Z" fill="#EEECFE" mask="url(#path-52-inside-7_1_1068)"/>
<path d="M429.505 278.821H428.365V277.11H428.935V275.396H429.505V273.681H430.075V271.966H430.65V270.821H432.365V271.966H432.935V273.681H433.505V275.396H434.075V277.11H434.65V278.821H433.505V277.11H429.505V278.821ZM430.075 275.966H432.935V275.396H432.365V273.681H431.79V272.536H431.22V273.681H430.65V275.396H430.075V275.966ZM436.927 278.821H435.786V270.821H440.357V271.396H440.927V271.966H441.497V274.821H440.927V275.396H440.357V275.966H436.927V278.821ZM436.927 274.821H439.786V274.251H440.357V272.536H439.786V271.966H436.927V274.821ZM443.786 278.821H442.646V270.821H447.786V271.396H448.357V271.966H448.931V274.536H448.357V275.11H447.786V275.681H448.357V276.251H448.931V278.821H447.786V276.821H447.216V276.251H446.646V275.681H443.786V278.821ZM443.786 274.536H447.216V273.966H447.786V272.536H447.216V271.966H443.786V274.536Z" fill="#5D4BFF"/>
</svg>
