<svg width="15" height="19" viewBox="0 0 15 19" fill="none" xmlns="http://www.w3.org/2000/svg">
<path d="M4.16671 10.8333V14.1667M10.8334 9.16667V14.1667M7.50004 5.83334V14.1667M14.1667 4.83334V13.5C14.1667 14.9001 14.1667 15.6002 13.8942 16.135C13.6545 16.6054 13.2721 16.9878 12.8017 17.2275C12.2669 17.5 11.5668 17.5 10.1667 17.5H4.83337C3.43324 17.5 2.73318 17.5 2.1984 17.2275C1.72799 16.9878 1.34554 16.6054 1.10586 16.135C0.833374 15.6002 0.833374 14.9001 0.833374 13.5V4.83334C0.833374 3.4332 0.833374 2.73314 1.10586 2.19836C1.34554 1.72795 1.72799 1.3455 2.1984 1.10582C2.73318 0.833336 3.43324 0.833336 4.83337 0.833336H10.1667C11.5668 0.833336 12.2669 0.833336 12.8017 1.10582C13.2721 1.3455 13.6545 1.72795 13.8942 2.19836C14.1667 2.73314 14.1667 3.4332 14.1667 4.83334Z" stroke="currentColor" stroke-width="1.66667" stroke-linecap="round" stroke-linejoin="round"/>
</svg>
