<svg width="15" height="19" viewBox="0 0 15 19" fill="none" xmlns="http://www.w3.org/2000/svg">
<path d="M9.16671 1.05798V4.5001C9.16671 4.96681 9.16671 5.20017 9.25754 5.37843C9.33743 5.53523 9.46491 5.66271 9.62171 5.74261C9.79997 5.83343 10.0333 5.83343 10.5 5.83343H13.9422M9.16671 13.3334H4.16671M10.8334 10H4.16671M14.1667 7.49023V13.5C14.1667 14.9002 14.1667 15.6002 13.8942 16.135C13.6545 16.6054 13.2721 16.9879 12.8017 17.2276C12.2669 17.5 11.5668 17.5 10.1667 17.5H4.83337C3.43324 17.5 2.73318 17.5 2.1984 17.2276C1.72799 16.9879 1.34554 16.6054 1.10586 16.135C0.833374 15.6002 0.833374 14.9002 0.833374 13.5V4.83337C0.833374 3.43324 0.833374 2.73318 1.10586 2.1984C1.34554 1.72799 1.72799 1.34554 2.1984 1.10586C2.73318 0.833374 3.43324 0.833374 4.83337 0.833374H7.50985C8.12133 0.833374 8.42707 0.833374 8.71479 0.902449C8.96988 0.963691 9.21374 1.0647 9.43742 1.20177C9.68971 1.35638 9.9059 1.57257 10.3383 2.00495L12.9951 4.6618C13.4275 5.09418 13.6437 5.31037 13.7983 5.56266C13.9354 5.78634 14.0364 6.0302 14.0976 6.28529C14.1667 6.57301 14.1667 6.87875 14.1667 7.49023Z" stroke="currentColor" stroke-width="1.66667" stroke-linecap="round" stroke-linejoin="round"/>
</svg>
