<svg width="19" height="19" viewBox="0 0 19 19" fill="none" xmlns="http://www.w3.org/2000/svg">
<path d="M6.74171 6.66668C6.93763 6.10973 7.32433 5.6401 7.83334 5.34095C8.34234 5.04181 8.94079 4.93246 9.52269 5.03227C10.1046 5.13208 10.6324 5.43461 11.0126 5.88628C11.3928 6.33795 11.6009 6.90961 11.6 7.50001C11.6 9.16668 9.10004 10 9.10004 10M9.16671 13.3333H9.17504M17.5 9.16668C17.5 13.769 13.7691 17.5 9.16671 17.5C4.56433 17.5 0.833374 13.769 0.833374 9.16668C0.833374 4.5643 4.56433 0.833344 9.16671 0.833344C13.7691 0.833344 17.5 4.5643 17.5 9.16668Z" stroke="currentColor" stroke-width="1.66667" stroke-linecap="round" stroke-linejoin="round"/>
</svg>
