<svg width="16" height="17" viewBox="0 0 16 17" fill="none" xmlns="http://www.w3.org/2000/svg">
<path d="M7.79777 10.8333C5.15604 10.8333 2.80677 12.1089 1.3111 14.0883C0.989188 14.5143 0.828234 14.7273 0.833499 15.0152C0.837567 15.2376 0.977235 15.5182 1.15224 15.6556C1.37876 15.8333 1.69266 15.8333 2.32046 15.8333H13.2751C13.9029 15.8333 14.2168 15.8333 14.4433 15.6556C14.6183 15.5182 14.758 15.2376 14.762 15.0152C14.7673 14.7273 14.6063 14.5143 14.2844 14.0883C12.7888 12.1089 10.4395 10.8333 7.79777 10.8333Z" stroke="currentColor" stroke-width="1.66667" stroke-linecap="round" stroke-linejoin="round"/>
<path d="M7.79777 8.33333C9.86884 8.33333 11.5478 6.6544 11.5478 4.58333C11.5478 2.51226 9.86884 0.833328 7.79777 0.833328C5.7267 0.833328 4.04777 2.51226 4.04777 4.58333C4.04777 6.6544 5.7267 8.33333 7.79777 8.33333Z" stroke="currentColor" stroke-width="1.66667" stroke-linecap="round" stroke-linejoin="round"/>
</svg>
