<svg width="10" height="10" viewBox="0 0 10 10" fill="none" xmlns="http://www.w3.org/2000/svg">
<path d="M2.50006 4.5C2.03508 4.5 1.80258 4.5 1.61183 4.55111C1.09419 4.68981 0.689873 5.09413 0.551172 5.61177C0.500061 5.80252 0.500061 6.03501 0.500061 6.5V7.1C0.500061 7.94008 0.500061 8.36012 0.663551 8.68099C0.807361 8.96323 1.03683 9.1927 1.31908 9.33651C1.63994 9.5 2.05998 9.5 2.90006 9.5H7.10006C7.94014 9.5 8.36018 9.5 8.68105 9.33651C8.96329 9.1927 9.19276 8.96323 9.33657 8.68099C9.50006 8.36012 9.50006 7.94008 9.50006 7.1V6.5C9.50006 6.03501 9.50006 5.80252 9.44895 5.61177C9.31025 5.09413 8.90593 4.68981 8.38829 4.55111C8.19754 4.5 7.96505 4.5 7.50006 4.5M7.00006 2.5L5.00006 0.5M5.00006 0.5L3.00006 2.5M5.00006 0.5V6.5" stroke="currentColor" stroke-linecap="round" stroke-linejoin="round"/>
</svg>
