<svg width="17" height="19" viewBox="0 0 17 19" fill="none" xmlns="http://www.w3.org/2000/svg">
<path d="M11.8021 6.66668V4.16668C11.8021 2.32573 10.3097 0.833344 8.46877 0.833344C6.62782 0.833344 5.13544 2.32573 5.13544 4.16668V6.66668M1.46211 7.79331L0.962109 13.1266C0.819945 14.6431 0.748863 15.4013 1.00048 15.9869C1.22152 16.5014 1.60887 16.9267 2.10046 17.1948C2.66004 17.5 3.42158 17.5 4.94465 17.5H11.9929C13.516 17.5 14.2775 17.5 14.8371 17.1948C15.3287 16.9267 15.716 16.5014 15.9371 15.9869C16.1887 15.4013 16.1176 14.6431 15.9754 13.1266L15.4754 7.79331C15.3554 6.5128 15.2954 5.87254 15.0074 5.38848C14.7538 4.96216 14.3791 4.62094 13.9309 4.40821C13.4221 4.16668 12.779 4.16668 11.4929 4.16668L5.44465 4.16668C4.15851 4.16668 3.51545 4.16668 3.00662 4.40821C2.55849 4.62093 2.18378 4.96216 1.93016 5.38848C1.64218 5.87254 1.58216 6.5128 1.46211 7.79331Z" stroke="currentColor" stroke-width="1.66667" stroke-linecap="round" stroke-linejoin="round"/>
</svg>
